<?xml version="1.0" encoding="UTF-8" standalone="no"?>
<svg version="1.1" xmlns="http://www.w3.org/2000/svg" style="font-family: sans-serif; " width="800" height="450" viewBox="0 0 800 450"><title>偏差値(Bob)</title><defs><clipPath id="chart-clipPath-exact"><rect height="335" width="637"></rect></clipPath><clipPath id="chart-clipPath-buffer"><rect x="-10" y="-10" height="355" width="657"></rect></clipPath></defs><g class="scaler"><rect width="800" height="450" fill="rgb(255, 255, 255)" fill-opacity="1"></rect><g class="canvas" transform="translate(50,25)"><g class="grid"><g class="axis-grid y" transform="translate(0,0)"><line class="grid" x1="0" x2="637" y1="0" y2="0" style="stroke: #ebe9dd; stroke-opacity: 0.3; stroke-width: 5px; " transform="translate(0,335)"></line><line class="grid" x1="0" x2="637" y1="0" y2="0" style="stroke: #ebe9dd; stroke-opacity: 0.3; stroke-width: 5px; " transform="translate(0,251.25)"></line><line class="grid" x1="0" x2="637" y1="0" y2="0" style="stroke: #ebe9dd; stroke-opacity: 0.3; stroke-width: 5px; " transform="translate(0,167.5)"></line><line class="grid" x1="0" x2="637" y1="0" y2="0" style="stroke: #ebe9dd; stroke-opacity: 0.3; stroke-width: 5px; " transform="translate(0,83.75)"></line><line class="grid" x1="0" x2="637" y1="0" y2="0" style="stroke: #ebe9dd; stroke-opacity: 0.3; stroke-width: 5px; " transform="translate(0,0)"></line></g><g class="axis-grid y2" transform="translate(636.5,0)"></g><g class="axis-grid x" transform="translate(0,335)"></g><g class="axis-grid x2" transform="translate(0,1)"></g></g><rect class="trigger-layer" height="400" width="750" opacity="0"></rect><g class="chart"><g class="series s0"><path class="line" clip-path="url(#chart-clipPath-exact)" visibility="visible" fill="none" stroke="rgb(65, 105, 225)" stroke-opacity="1" stroke-width="5" d="M0,159.125L318.5,80.39999999999992L637,150.74999999999997"></path><path class="point" clip-path="url(#chart-clipPath-buffer)" visibility="hidden" transform="translate(0,159.125)"></path><path class="point" clip-path="url(#chart-clipPath-buffer)" visibility="hidden" transform="translate(318.5,80.39999999999992)"></path><path class="point" clip-path="url(#chart-clipPath-buffer)" visibility="hidden" transform="translate(637,150.74999999999997)"></path><text class="data-label" font-size="14" fill="rgb(65, 105, 225)" fill-opacity="1" visibility="visible" text-anchor="middle" data-text-vanchor="bottom" transform="translate(0,135.125)"><tspan x="0" y="0" dy="0.91em">60.5</tspan></text><text class="data-label" font-size="14" fill="rgb(65, 105, 225)" fill-opacity="1" visibility="visible" text-anchor="middle" data-text-vanchor="bottom" transform="translate(318.5,56.39999999999992)"><tspan x="0" y="0" dy="0.91em">65.2</tspan></text><text class="data-label" font-size="14" fill="rgb(65, 105, 225)" fill-opacity="1" visibility="visible" text-anchor="middle" data-text-vanchor="bottom" transform="translate(637,126.74999999999997)"><tspan x="0" y="0" dy="0.91em">61</tspan></text></g><g class="series s1"><path class="line" clip-path="url(#chart-clipPath-exact)" visibility="visible" fill="none" stroke="rgb(233, 76, 59)" stroke-opacity="1" stroke-width="5" d="M0,226.125L318.5,169.175L637,261.3"></path><path class="point" clip-path="url(#chart-clipPath-buffer)" visibility="hidden" transform="translate(0,226.125)"></path><path class="point" clip-path="url(#chart-clipPath-buffer)" visibility="hidden" transform="translate(318.5,169.175)"></path><path class="point" clip-path="url(#chart-clipPath-buffer)" visibility="hidden" transform="translate(637,261.3)"></path><text class="data-label" font-size="14" fill="rgb(233, 76, 59)" fill-opacity="1" visibility="visible" text-anchor="middle" data-text-vanchor="bottom" transform="translate(0,202.125)"><tspan x="0" y="0" dy="0.91em">56.5</tspan></text><text class="data-label" font-size="14" fill="rgb(233, 76, 59)" fill-opacity="1" visibility="visible" text-anchor="middle" data-text-vanchor="bottom" transform="translate(318.5,145.175)"><tspan x="0" y="0" dy="0.91em">59.9</tspan></text><text class="data-label" font-size="14" fill="rgb(233, 76, 59)" fill-opacity="1" visibility="visible" text-anchor="middle" data-text-vanchor="bottom" transform="translate(637,237.3)"><tspan x="0" y="0" dy="0.91em">54.4</tspan></text></g><g class="series s2"><path class="line" clip-path="url(#chart-clipPath-exact)" visibility="visible" fill="none" stroke="rgb(188, 188, 188)" stroke-opacity="1" stroke-width="5" d="M0,182.575L318.5,102.17500000000001L637,206.02499999999995"></path><path class="point" clip-path="url(#chart-clipPath-buffer)" visibility="hidden" transform="translate(0,182.575)"></path><path class="point" clip-path="url(#chart-clipPath-buffer)" visibility="hidden" transform="translate(318.5,102.17500000000001)"></path><path class="point" clip-path="url(#chart-clipPath-buffer)" visibility="hidden" transform="translate(637,206.02499999999995)"></path><text class="data-label" font-size="14" fill="rgb(188, 188, 188)" fill-opacity="1" visibility="visible" text-anchor="middle" data-text-vanchor="bottom" transform="translate(0,158.575)"><tspan x="0" y="0" dy="0.91em">59.1</tspan></text><text class="data-label" font-size="14" fill="rgb(188, 188, 188)" fill-opacity="1" visibility="visible" text-anchor="middle" data-text-vanchor="bottom" transform="translate(318.5,78.17500000000001)"><tspan x="0" y="0" dy="0.91em">63.9</tspan></text><text class="data-label" font-size="14" fill="rgb(188, 188, 188)" fill-opacity="1" visibility="visible" text-anchor="middle" data-text-vanchor="bottom" transform="translate(637,182.02499999999995)"><tspan x="0" y="0" dy="0.91em">57.7</tspan></text></g></g><g class="axes"><g class="axis-labels"></g><g class="axis left" transform="translate(0,0)"><g class="tick major" style="opacity: 1; display: block; " transform="translate(0,335)"><line x2="-6" y2="0"></line><text x="-9" y="0" dy="7" style="fill: #000000; fill-opacity: 1; font-family: sans-serif; font-size: 14px; text-anchor: end; " transform="rotate(0, -9, 0)translate(0,0)" data-org-x="-9" data-org-y="0">50</text></g><g class="tick major" style="opacity: 1; display: block; " transform="translate(0,251.25)"><line x2="-6" y2="0"></line><text x="-9" y="0" dy="7" style="fill: #000000; fill-opacity: 1; font-family: sans-serif; font-size: 14px; text-anchor: end; " transform="rotate(0, -9, 0)translate(0,0)" data-org-x="-9" data-org-y="0">55</text></g><g class="tick major" style="opacity: 1; display: block; " transform="translate(0,167.5)"><line x2="-6" y2="0"></line><text x="-9" y="0" dy="7" style="fill: #000000; fill-opacity: 1; font-family: sans-serif; font-size: 14px; text-anchor: end; " transform="rotate(0, -9, 0)translate(0,0)" data-org-x="-9" data-org-y="0">60</text></g><g class="tick major" style="opacity: 1; display: block; " transform="translate(0,83.75)"><line x2="-6" y2="0"></line><text x="-9" y="0" dy="7" style="fill: #000000; fill-opacity: 1; font-family: sans-serif; font-size: 14px; text-anchor: end; " transform="rotate(0, -9, 0)translate(0,0)" data-org-x="-9" data-org-y="0">65</text></g><g class="tick major" style="opacity: 1; display: block; " transform="translate(0,0)"><line x2="-6" y2="0"></line><text x="-9" y="0" dy="7" style="fill: #000000; fill-opacity: 1; font-family: sans-serif; font-size: 14px; text-anchor: end; " transform="rotate(0, -9, 0)translate(0,0)" data-org-x="-9" data-org-y="0">70</text></g><path class="domain" d="M0,0H0V335H0" stroke-width="0" fill="none" stroke="rgb(255, 255, 255)" stroke-opacity="1"></path></g><g class="axis bottom" transform="translate(0,335)"><g class="tick major" style="opacity: 1; display: block; " transform="translate(0,0)"><line y2="6" x2="0"></line><text y="9" x="0" dy="7" style="fill: #000000; fill-opacity: 1; font-family: sans-serif; font-size: 14px; text-anchor: start; " transform="rotate(20, 0, 9)translate(0,0)" data-org-x="0" data-org-y="9">2021年06月(小1)</text></g><g class="tick major" style="opacity: 1; display: block; " transform="translate(318.5,0)"><line y2="6" x2="0"></line><text y="9" x="0" dy="7" style="fill: #000000; fill-opacity: 1; font-family: sans-serif; font-size: 14px; text-anchor: start; " transform="rotate(20, 0, 9)translate(0,0)" data-org-x="0" data-org-y="9">2021年11月(小1)</text></g><g class="tick major" style="opacity: 1; display: block; " transform="translate(637,0)"><line y2="6" x2="0"></line><text y="9" x="0" dy="7" style="fill: #000000; fill-opacity: 1; font-family: sans-serif; font-size: 14px; text-anchor: start; " transform="rotate(20, 0, 9)translate(0,0)" data-org-x="0" data-org-y="9">2022年06月(小2)</text></g><path class="domain" d="M0,0V0H637V0" stroke-width="0" fill="none" stroke="rgb(235, 233, 221)" stroke-opacity="1"></path><path class="filler" d="M0,0V0H0V0" stroke-width="0" fill="none" stroke="rgb(235, 233, 221)" stroke-opacity="1"></path></g></g></g><g class="label" transform="translate(332.91553497314,26.098901748657)"><text style="text-anchor: start; font-family: sans-serif; font-size: 22px; " fill="rgb(0, 0, 0)" dy="22" transform="rotate(0)">偏差値(Bob)</text></g><g class="legend" transform="translate(711.1013450622559,25)"><g class="row" transform="translate(0,0)"><text class="key" style="font-size: 14px; fill: #000000; fill-opacity: 1; " dx="28" dy="14">算数</text><path class="shape" d="M0,7.898654169668588A7.898654169668588,7.898654169668588 0 1,1 0,-7.898654169668588A7.898654169668588,7.898654169668588 0 1,1 0,7.898654169668588Z" style="fill: #4169e1; fill-opacity: 1; " transform="translate(14,9.24)"></path></g><g class="row" transform="translate(0,35)"><text class="key" style="font-size: 14px; fill: #000000; fill-opacity: 1; " dx="28" dy="14">国語</text><path class="shape" d="M0,7.898654169668588A7.898654169668588,7.898654169668588 0 1,1 0,-7.898654169668588A7.898654169668588,7.898654169668588 0 1,1 0,7.898654169668588Z" style="fill: #e94c3b; fill-opacity: 1; " transform="translate(14,9.24)"></path></g><g class="row" transform="translate(0,70)"><text class="key" style="font-size: 14px; fill: #000000; fill-opacity: 1; " dx="28" dy="14">全教科</text><path class="shape" d="M0,7.898654169668588A7.898654169668588,7.898654169668588 0 1,1 0,-7.898654169668588A7.898654169668588,7.898654169668588 0 1,1 0,7.898654169668588Z" style="fill: #bcbcbc; fill-opacity: 1; " transform="translate(14,9.24)"></path></g></g></g></svg>