<?xml version="1.0" encoding="UTF-8" standalone="no"?>
<svg version="1.1" xmlns="http://www.w3.org/2000/svg" style="font-family: Arial; " width="800" height="450" viewBox="0 0 800 450"><title>AssetsPie</title><defs><clipPath id="chart-clipPath-exact"><rect height="349" width="760"></rect></clipPath><clipPath id="chart-clipPath-buffer"><rect x="-10" y="-10" height="369" width="780"></rect></clipPath></defs><g class="scaler"><rect width="800" height="450" fill="rgb(255, 255, 255)" fill-opacity="1"></rect><g class="canvas" transform="translate(15,41)"><g class="grid"><g class="axis-grid x" transform="translate(0,348)"></g><g class="axis-grid y" transform="translate(0,348)"></g></g><rect class="trigger-layer" height="375" width="760" opacity="0"></rect><g class="chart" transform="translate(379.9931640625,174.49986267089844)"><g class="series s0"><g class="arc"><path d="M1.0685043322560657e-14,-174.5A174.5,174.5 0 0,1 96.46361140552827,145.41327887989883L0,0Z" style="fill: #ff4b00; fill-opacity: 1; stroke: #ffffff; stroke-opacity: 1; stroke-width: 2px; "></path></g><g class="arc"><path d="M96.46361140552827,145.41327887989883A174.5,174.5 0 0,1 -174.49959342557258,-0.37668861128327535L0,0Z" style="fill: #005aff; fill-opacity: 1; stroke: #ffffff; stroke-opacity: 1; stroke-width: 2px; "></path></g><g class="arc"><path d="M-174.49959342557258,-0.37668861128327535A174.5,174.5 0 0,1 -3.205512996768197e-14,-174.5L0,0Z" style="fill: #03af7a; fill-opacity: 1; stroke: #ffffff; stroke-opacity: 1; stroke-width: 2px; "></path></g></g></g><g class="axes"><g class="axis-labels"></g></g></g><g class="legend" transform="translate(569.3040466308594,15)"><g class="row" transform="translate(0,0)"><text class="key" style="font-size: 14px; fill: #666666; fill-opacity: 1; " dx="28" dy="14">預金</text><path class="shape" d="M0,7.898654169668588A7.898654169668588,7.898654169668588 0 1,1 0,-7.898654169668588A7.898654169668588,7.898654169668588 0 1,1 0,7.898654169668588Z" style="fill: #ff4b00; fill-opacity: 1; " transform="translate(14,9.24)"></path></g><g class="row" transform="translate(63.89865493774414,0)"><text class="key" style="font-size: 14px; fill: #666666; fill-opacity: 1; " dx="28" dy="14">学資保険</text><path class="shape" d="M0,7.898654169668588A7.898654169668588,7.898654169668588 0 1,1 0,-7.898654169668588A7.898654169668588,7.898654169668588 0 1,1 0,7.898654169668588Z" style="fill: #005aff; fill-opacity: 1; " transform="translate(14,9.24)"></path></g><g class="row" transform="translate(155.79730606079102,0)"><text class="key" style="font-size: 14px; fill: #666666; fill-opacity: 1; " dx="28" dy="14">株式</text><path class="shape" d="M0,7.898654169668588A7.898654169668588,7.898654169668588 0 1,1 0,-7.898654169668588A7.898654169668588,7.898654169668588 0 1,1 0,7.898654169668588Z" style="fill: #03af7a; fill-opacity: 1; " transform="translate(14,9.24)"></path></g></g></g></svg>