<?xml version="1.0" encoding="UTF-8" standalone="no"?>
<svg version="1.1" xmlns="http://www.w3.org/2000/svg" style="font-family: Arial; " width="800" height="450" viewBox="0 0 800 450"><title>Assets</title><defs><clipPath id="chart-clipPath-exact"><rect height="302" width="709"></rect></clipPath><clipPath id="chart-clipPath-buffer"><rect x="-10" y="-10" height="322" width="729"></rect></clipPath></defs><g class="scaler"><rect width="800" height="450" fill="rgb(255, 255, 255)" fill-opacity="1"></rect><g class="canvas" transform="translate(66,51)"><g class="grid"><g class="axis-grid x" transform="translate(0,302)"></g><g class="axis-grid y" transform="translate(0,0)"><line class="grid" x1="0" x2="709" y1="0" y2="0" style="stroke: #666666; stroke-opacity: 0.3; stroke-width: 1px; " transform="translate(0,302)"></line><line class="grid" x1="0" x2="709" y1="0" y2="0" style="stroke: #666666; stroke-opacity: 0.3; stroke-width: 1px; " transform="translate(0,241.6)"></line><line class="grid" x1="0" x2="709" y1="0" y2="0" style="stroke: #666666; stroke-opacity: 0.3; stroke-width: 1px; " transform="translate(0,181.2)"></line><line class="grid" x1="0" x2="709" y1="0" y2="0" style="stroke: #666666; stroke-opacity: 0.3; stroke-width: 1px; " transform="translate(0,120.80000000000001)"></line><line class="grid" x1="0" x2="709" y1="0" y2="0" style="stroke: #666666; stroke-opacity: 0.3; stroke-width: 1px; " transform="translate(0,60.39999999999998)"></line><line class="grid" x1="0" x2="709" y1="0" y2="0" style="stroke: #666666; stroke-opacity: 0.3; stroke-width: 1px; " transform="translate(0,0)"></line></g><g class="axis-grid y2" transform="translate(708.5,0)"></g><g class="axis-grid x2" transform="translate(0,1)"></g></g><rect class="trigger-layer" height="400" width="750" opacity="0"></rect><g class="chart"><g class="series s0"><g class="bar"><rect fill="rgb(255, 75, 0)" opacity="1" x="15.41304347826087" width="61.65217391304348" y="177.274" height="124.726" clip-path="url(#chart-clipPath-exact)"></rect></g><g class="bar"><rect fill="rgb(255, 75, 0)" opacity="1" x="92.47826086956522" width="61.65217391304348" y="177.274" height="124.726" clip-path="url(#chart-clipPath-exact)"></rect></g><g class="bar"><rect fill="rgb(255, 75, 0)" opacity="1" x="169.54347826086956" width="61.65217391304348" y="169.12" height="132.88" clip-path="url(#chart-clipPath-exact)"></rect></g><g class="bar"><rect fill="rgb(255, 75, 0)" opacity="1" x="246.6086956521739" width="61.65217391304348" y="159.8184" height="142.1816" clip-path="url(#chart-clipPath-exact)"></rect></g><g class="bar"><rect fill="rgb(255, 75, 0)" opacity="1" x="323.67391304347825" width="61.65217391304348" y="177.33440000000002" height="124.66559999999998" clip-path="url(#chart-clipPath-exact)"></rect></g><g class="bar"><rect fill="rgb(255, 75, 0)" opacity="1" x="400.7391304347826" width="61.65217391304348" y="164.7108" height="137.2892" clip-path="url(#chart-clipPath-exact)"></rect></g><g class="bar"><rect fill="rgb(255, 75, 0)" opacity="1" x="477.80434782608694" width="61.65217391304348" y="181.9248" height="120.0752" clip-path="url(#chart-clipPath-exact)"></rect></g><g class="bar"><rect fill="rgb(255, 75, 0)" opacity="1" x="554.8695652173913" width="61.65217391304348" y="176.00560000000002" height="125.99439999999998" clip-path="url(#chart-clipPath-exact)"></rect></g><g class="bar"><rect fill="rgb(255, 75, 0)" opacity="1" x="631.9347826086956" width="61.65217391304348" y="194.7296" height="107.2704" clip-path="url(#chart-clipPath-exact)"></rect></g></g><g class="series s1"><g class="bar"><rect fill="rgb(0, 90, 255)" opacity="1" x="15.41304347826087" width="61.65217391304348" y="104.79399999999998" height="72.48000000000002" clip-path="url(#chart-clipPath-exact)"></rect></g><g class="bar"><rect fill="rgb(0, 90, 255)" opacity="1" x="92.47826086956522" width="61.65217391304348" y="104.79399999999998" height="72.48000000000002" clip-path="url(#chart-clipPath-exact)"></rect></g><g class="bar"><rect fill="rgb(0, 90, 255)" opacity="1" x="169.54347826086956" width="61.65217391304348" y="96.63999999999999" height="72.48000000000002" clip-path="url(#chart-clipPath-exact)"></rect></g><g class="bar"><rect fill="rgb(0, 90, 255)" opacity="1" x="246.6086956521739" width="61.65217391304348" y="87.33840000000001" height="72.48000000000002" clip-path="url(#chart-clipPath-exact)"></rect></g><g class="bar"><rect fill="rgb(0, 90, 255)" opacity="1" x="323.67391304347825" width="61.65217391304348" y="86.7344" height="90.6" clip-path="url(#chart-clipPath-exact)"></rect></g><g class="bar"><rect fill="rgb(0, 90, 255)" opacity="1" x="400.7391304347826" width="61.65217391304348" y="74.11079999999998" height="90.6" clip-path="url(#chart-clipPath-exact)"></rect></g><g class="bar"><rect fill="rgb(0, 90, 255)" opacity="1" x="477.80434782608694" width="61.65217391304348" y="91.32480000000001" height="90.6" clip-path="url(#chart-clipPath-exact)"></rect></g><g class="bar"><rect fill="rgb(0, 90, 255)" opacity="1" x="554.8695652173913" width="61.65217391304348" y="85.40559999999999" height="90.6" clip-path="url(#chart-clipPath-exact)"></rect></g><g class="bar"><rect fill="rgb(0, 90, 255)" opacity="1" x="631.9347826086956" width="61.65217391304348" y="104.12960000000001" height="90.6" clip-path="url(#chart-clipPath-exact)"></rect></g></g><g class="series s2"><g class="bar"><rect fill="rgb(3, 175, 122)" opacity="1" x="15.41304347826087" width="61.65217391304348" y="92.41199999999998" height="12.382000000000005" clip-path="url(#chart-clipPath-exact)"></rect></g><g class="bar"><rect fill="rgb(3, 175, 122)" opacity="1" x="92.47826086956522" width="61.65217391304348" y="92.41199999999998" height="12.382000000000005" clip-path="url(#chart-clipPath-exact)"></rect></g><g class="bar"><rect fill="rgb(3, 175, 122)" opacity="1" x="169.54347826086956" width="61.65217391304348" y="85.34519999999998" height="11.29480000000001" clip-path="url(#chart-clipPath-exact)"></rect></g><g class="bar"><rect fill="rgb(3, 175, 122)" opacity="1" x="246.6086956521739" width="61.65217391304348" y="77.0704" height="10.268000000000029" clip-path="url(#chart-clipPath-exact)"></rect></g><g class="bar"><rect fill="rgb(3, 175, 122)" opacity="1" x="323.67391304347825" width="61.65217391304348" y="72.35919999999999" height="14.375200000000007" clip-path="url(#chart-clipPath-exact)"></rect></g><g class="bar"><rect fill="rgb(3, 175, 122)" opacity="1" x="400.7391304347826" width="61.65217391304348" y="53.6352" height="20.475599999999986" clip-path="url(#chart-clipPath-exact)"></rect></g><g class="bar"><rect fill="rgb(3, 175, 122)" opacity="1" x="477.80434782608694" width="61.65217391304348" y="43.910799999999995" height="47.41399999999999" clip-path="url(#chart-clipPath-exact)"></rect></g><g class="bar"><rect fill="rgb(3, 175, 122)" opacity="1" x="554.8695652173913" width="61.65217391304348" y="39.80359999999996" height="45.601999999999975" clip-path="url(#chart-clipPath-exact)"></rect></g><g class="bar"><rect fill="rgb(3, 175, 122)" opacity="1" x="631.9347826086956" width="61.65217391304348" y="38.29359999999997" height="65.83600000000001" clip-path="url(#chart-clipPath-exact)"></rect></g></g></g><g class="axes"><g class="axis-labels"></g><g class="axis bottom" transform="translate(0,302)"><g class="tick major" style="opacity: 1; display: block; " transform="translate(46.23913043478261,0)"><line y2="6" x2="0"></line><text y="9" x="0" dy="7" style="fill: #666666; fill-opacity: 1; font-family: Arial; font-size: 14px; text-anchor: middle; " transform="rotate(0, 0, 9)translate(0,0)" data-org-x="0" data-org-y="9">202101</text></g><g class="tick major" style="opacity: 1; display: block; " transform="translate(123.30434782608695,0)"><line y2="6" x2="0"></line><text y="9" x="0" dy="7" style="fill: #666666; fill-opacity: 1; font-family: Arial; font-size: 14px; text-anchor: middle; " transform="rotate(0, 0, 9)translate(0,0)" data-org-x="0" data-org-y="9">202101</text></g><g class="tick major" style="opacity: 1; display: block; " transform="translate(200.3695652173913,0)"><line y2="6" x2="0"></line><text y="9" x="0" dy="7" style="fill: #666666; fill-opacity: 1; font-family: Arial; font-size: 14px; text-anchor: middle; " transform="rotate(0, 0, 9)translate(0,0)" data-org-x="0" data-org-y="9">202103</text></g><g class="tick major" style="opacity: 1; display: block; " transform="translate(277.4347826086956,0)"><line y2="6" x2="0"></line><text y="9" x="0" dy="7" style="fill: #666666; fill-opacity: 1; font-family: Arial; font-size: 14px; text-anchor: middle; " transform="rotate(0, 0, 9)translate(0,0)" data-org-x="0" data-org-y="9">202106</text></g><g class="tick major" style="opacity: 1; display: block; " transform="translate(354.5,0)"><line y2="6" x2="0"></line><text y="9" x="0" dy="7" style="fill: #666666; fill-opacity: 1; font-family: Arial; font-size: 14px; text-anchor: middle; " transform="rotate(0, 0, 9)translate(0,0)" data-org-x="0" data-org-y="9">202109</text></g><g class="tick major" style="opacity: 1; display: block; " transform="translate(431.5652173913044,0)"><line y2="6" x2="0"></line><text y="9" x="0" dy="7" style="fill: #666666; fill-opacity: 1; font-family: Arial; font-size: 14px; text-anchor: middle; " transform="rotate(0, 0, 9)translate(0,0)" data-org-x="0" data-org-y="9">202112</text></g><g class="tick major" style="opacity: 1; display: block; " transform="translate(508.6304347826087,0)"><line y2="6" x2="0"></line><text y="9" x="0" dy="7" style="fill: #666666; fill-opacity: 1; font-family: Arial; font-size: 14px; text-anchor: middle; " transform="rotate(0, 0, 9)translate(0,0)" data-org-x="0" data-org-y="9">202203</text></g><g class="tick major" style="opacity: 1; display: block; " transform="translate(585.695652173913,0)"><line y2="6" x2="0"></line><text y="9" x="0" dy="7" style="fill: #666666; fill-opacity: 1; font-family: Arial; font-size: 14px; text-anchor: middle; " transform="rotate(0, 0, 9)translate(0,0)" data-org-x="0" data-org-y="9">202206</text></g><g class="tick major" style="opacity: 1; display: block; " transform="translate(662.7608695652174,0)"><line y2="6" x2="0"></line><text y="9" x="0" dy="7" style="fill: #666666; fill-opacity: 1; font-family: Arial; font-size: 14px; text-anchor: middle; " transform="rotate(0, 0, 9)translate(0,0)" data-org-x="0" data-org-y="9">202209</text></g><path class="domain" d="M0,0V0H709V0" stroke-width="0" fill="none" stroke="rgb(188, 188, 188)" stroke-opacity="1"></path><path class="filler" d="M0,0V0H0V0" stroke-width="0" fill="none" stroke="rgb(188, 188, 188)" stroke-opacity="1"></path></g><g class="axis left" transform="translate(0,0)"><g class="tick major" style="opacity: 1; display: block; " transform="translate(0,302)"><line x2="-6" y2="0"></line><text x="-9" y="0" dy="7" style="fill: #666666; fill-opacity: 1; font-family: Arial; font-size: 14px; text-anchor: end; " transform="rotate(0, -9, 0)translate(0,0)" data-org-x="-9" data-org-y="0">0</text></g><g class="tick major" style="opacity: 1; display: block; " transform="translate(0,241.6)"><line x2="-6" y2="0"></line><text x="-9" y="0" dy="7" style="fill: #666666; fill-opacity: 1; font-family: Arial; font-size: 14px; text-anchor: end; " transform="rotate(0, -9, 0)translate(0,0)" data-org-x="-9" data-org-y="0">1000</text></g><g class="tick major" style="opacity: 1; display: block; " transform="translate(0,181.2)"><line x2="-6" y2="0"></line><text x="-9" y="0" dy="7" style="fill: #666666; fill-opacity: 1; font-family: Arial; font-size: 14px; text-anchor: end; " transform="rotate(0, -9, 0)translate(0,0)" data-org-x="-9" data-org-y="0">2000</text></g><g class="tick major" style="opacity: 1; display: block; " transform="translate(0,120.80000000000001)"><line x2="-6" y2="0"></line><text x="-9" y="0" dy="7" style="fill: #666666; fill-opacity: 1; font-family: Arial; font-size: 14px; text-anchor: end; " transform="rotate(0, -9, 0)translate(0,0)" data-org-x="-9" data-org-y="0">3000</text></g><g class="tick major" style="opacity: 1; display: block; " transform="translate(0,60.39999999999998)"><line x2="-6" y2="0"></line><text x="-9" y="0" dy="7" style="fill: #666666; fill-opacity: 1; font-family: Arial; font-size: 14px; text-anchor: end; " transform="rotate(0, -9, 0)translate(0,0)" data-org-x="-9" data-org-y="0">4000</text></g><g class="tick major" style="opacity: 1; display: block; " transform="translate(0,0)"><line x2="-6" y2="0"></line><text x="-9" y="0" dy="7" style="fill: #666666; fill-opacity: 1; font-family: Arial; font-size: 14px; text-anchor: end; " transform="rotate(0, -9, 0)translate(0,0)" data-org-x="-9" data-org-y="0">5000</text></g><path class="domain" d="M0,0H0V302H0" stroke-width="0" fill="none" stroke="rgb(188, 188, 188)" stroke-opacity="1"></path></g></g></g><g class="label" transform="translate(367,400)"><text style="text-anchor: start; font-family: Arial; font-size: 22px; " fill="rgb(102, 102, 102)" dy="22" transform="rotate(0)">Assets</text></g><g class="legend" transform="translate(297.1520233154297,25)"><g class="row" transform="translate(0,0)"><text class="key" style="font-size: 14px; fill: #666666; fill-opacity: 1; " dx="28" dy="14">預金</text><path class="shape" d="M0,7.898654169668588A7.898654169668588,7.898654169668588 0 1,1 0,-7.898654169668588A7.898654169668588,7.898654169668588 0 1,1 0,7.898654169668588Z" style="fill: #ff4b00; fill-opacity: 1; " transform="translate(14,9.24)"></path></g><g class="row" transform="translate(63.89865493774414,0)"><text class="key" style="font-size: 14px; fill: #666666; fill-opacity: 1; " dx="28" dy="14">学資保険</text><path class="shape" d="M0,7.898654169668588A7.898654169668588,7.898654169668588 0 1,1 0,-7.898654169668588A7.898654169668588,7.898654169668588 0 1,1 0,7.898654169668588Z" style="fill: #005aff; fill-opacity: 1; " transform="translate(14,9.24)"></path></g><g class="row" transform="translate(155.79730606079102,0)"><text class="key" style="font-size: 14px; fill: #666666; fill-opacity: 1; " dx="28" dy="14">株式</text><path class="shape" d="M0,7.898654169668588A7.898654169668588,7.898654169668588 0 1,1 0,-7.898654169668588A7.898654169668588,7.898654169668588 0 1,1 0,7.898654169668588Z" style="fill: #03af7a; fill-opacity: 1; " transform="translate(14,9.24)"></path></g></g></g></svg>