<?xml version="1.0" standalone="no"?>
<!DOCTYPE svg PUBLIC "-//W3C//DTD SVG 20010904//EN"
 "http://www.w3.org/TR/2001/REC-SVG-20010904/DTD/svg10.dtd">
<svg version="1.0" xmlns="http://www.w3.org/2000/svg"
 width="700.000000pt" height="700.000000pt" viewBox="0 0 700.000000 700.000000"
 preserveAspectRatio="xMidYMid meet">
<metadata>
Created by potrace 1.14, written by Peter Selinger 2001-2017
</metadata>
<g transform="translate(0.000000,700.000000) scale(0.100000,-0.100000)"
fill="#000000" stroke="none">
<path d="M3907 6964 c-1 -1 -162 -5 -357 -9 -356 -6 -445 -9 -640 -19 -218
-12 -251 -20 -365 -95 -172 -112 -311 -299 -344 -461 -21 -108 -23 -164 -28
-865 -3 -390 -6 -711 -8 -713 -1 -2 -139 -5 -306 -7 -921 -12 -1125 -18 -1249
-36 -207 -30 -407 -196 -510 -422 -39 -87 -46 -151 -56 -571 -14 -529 -7
-1811 11 -2061 12 -160 18 -186 73 -292 84 -164 247 -291 442 -346 111 -31
193 -42 380 -53 63 -3 119 -10 125 -15 5 -6 10 -135 11 -317 2 -429 12 -498
87 -570 75 -73 145 -43 366 156 15 13 189 186 389 384 l363 362 542 2 c707 2
824 9 995 55 90 24 138 47 223 110 135 99 217 211 245 334 30 130 34 182 39
545 10 633 12 714 26 743 7 15 17 27 23 28 6 0 19 2 29 4 49 9 202 -124 691
-607 149 -146 294 -287 321 -312 70 -64 146 -116 175 -119 38 -3 149 35 154
52 3 9 8 169 11 356 6 283 9 425 14 610 1 19 8 20 159 21 179 0 265 8 366 30
168 38 304 107 405 205 75 72 124 145 198 294 l60 120 -2 1145 c-3 1497 -10
1717 -59 1835 -47 111 -189 275 -319 368 -93 67 -164 95 -255 101 -327 23
-587 28 -1560 30 -474 1 -864 1 -865 0z m1968 -358 c404 -12 450 -18 532 -73
72 -48 138 -124 161 -186 41 -110 45 -220 45 -1372 0 -1108 -6 -1360 -35
-1470 -17 -68 -69 -154 -121 -201 -82 -73 -182 -96 -482 -109 -411 -17 -467
-30 -516 -127 -25 -50 -34 -161 -34 -431 0 -125 -3 -226 -8 -224 -4 1 -181
175 -392 387 l-385 384 -712 2 c-794 2 -891 5 -1068 36 -136 23 -224 86 -279
201 -56 115 -56 105 -56 1457 0 945 4 1255 19 1340 3 14 7 39 9 55 21 134 56
181 212 285 l84 56 1413 -2 c777 -1 1503 -5 1613 -8z m-3711 -2166 c2 -3 6
-183 7 -400 3 -618 19 -703 173 -895 57 -70 140 -151 186 -180 82 -52 208 -87
355 -100 39 -3 90 -8 115 -10 25 -3 155 -8 290 -11 135 -3 304 -7 375 -9 72
-2 174 -4 228 -4 l99 -1 -5 -547 c-2 -302 -7 -561 -11 -578 -45 -203 -113
-274 -296 -309 -128 -25 -244 -29 -897 -30 l-633 -2 -276 -274 c-152 -151
-281 -279 -288 -285 -6 -5 -35 -32 -65 -59 -29 -26 -56 -44 -61 -40 -13 14
-21 98 -25 279 -5 191 -11 254 -30 316 -15 46 -78 58 -355 64 -177 4 -214 7
-305 20 -142 22 -257 91 -299 180 -45 93 -65 503 -65 1325 -1 869 20 1264 71
1365 66 132 173 168 542 181 88 4 162 7 163 8 5 4 1002 0 1007 -4z"/>
</g>
</svg>
