<svg xmlns="http://www.w3.org/2000/svg" width="400" height="300"><rect width="400" height="300" x="0" y="0" fill="#FFFFFF" id="backgorund"/><g id="viz"><g transform="translate(0,0)"><g id="pie" transform="translate(150,150)"><path fill="#2ca02c" stroke="#FFFFFF" d="M8.572527594031473e-15,-140A140,140,0,0,1,17.080144502455735,138.95419627983617L0,0Z"/><path fill="#1f77b4" stroke="#FFFFFF" d="M17.080144502455735,138.95419627983617A140,140,0,0,1,-124.30798363732322,-64.40128262715722L0,0Z"/><path fill="#ff7f0e" stroke="#FFFFFF" d="M-124.30798363732322,-64.40128262715722A140,140,0,0,1,9.862739597592311e-14,-140L0,0Z"/></g></g></g><g id="legend" transform="translate(300,10)"><g transform="translate(5,0)"><g class="legendColor" transform="translate(0,0)"><g class="legendCells" transform="translate(0,16)"><g class="cell" transform="translate(0, 0)"><rect class="swatch" height="15" width="15" style="fill: rgb(31, 119, 180);"/><text class="label" transform="translate( 20, 12.5)" font-family="&quot;Arial&quot;, sans-serif" font-size="10px"><tspan x="0" dy="0em">学資保険</tspan></text></g><g class="cell" transform="translate(0, 21)"><rect class="swatch" height="15" width="15" style="fill: rgb(255, 127, 14);"/><text class="label" transform="translate( 20, 12.5)" font-family="&quot;Arial&quot;, sans-serif" font-size="10px"><tspan x="0" dy="0em">株式</tspan></text></g><g class="cell" transform="translate(0, 42)"><rect class="swatch" height="15" width="15" style="fill: rgb(44, 160, 44);"/><text class="label" transform="translate( 20, 12.5)" font-family="&quot;Arial&quot;, sans-serif" font-size="10px"><tspan x="0" dy="0em">預金</tspan></text></g></g><text class="legendTitle" font-family="&quot;Arial&quot;, sans-serif" font-size="12px" font-weight="bold"><tspan x="0" dy="0em">Arcs colors</tspan></text></g></g></g></svg>