<svg xmlns="http://www.w3.org/2000/svg" width="1005" height="600"><rect width="1005" height="600" x="0" y="0" fill="#FFFFFF" id="backgorund"/><g id="viz"><g transform="translate(0,0)"><g transform="translate(50,20)"><g id="預金" fill="#2ca02c"><rect x="0.9986595174262902" y="303.02222222222224" width="105.28724626579853" height="256.97777777777776"/><rect x="107.2845653006511" y="286.2222222222222" width="105.28724626579853" height="273.7777777777778"/><rect x="213.5704710838759" y="267.0577777777778" width="105.28724626579853" height="292.9422222222222"/><rect x="319.8563768671007" y="303.14666666666665" width="105.28724626579853" height="256.85333333333335"/><rect x="426.1422826503255" y="277.1377777777778" width="105.28724626579853" height="282.8622222222222"/><rect x="532.4281884335503" y="312.6044444444444" width="105.28724626579853" height="247.39555555555557"/><rect x="638.7140942167752" y="300.4088888888889" width="105.28724626579853" height="259.5911111111111"/></g><g id="学資保険" fill="#1f77b4"><rect x="0.9986595174262902" y="153.68888888888893" width="105.28724626579853" height="149.33333333333331"/><rect x="107.2845653006511" y="136.8888888888889" width="105.28724626579853" height="149.33333333333331"/><rect x="213.5704710838759" y="117.72444444444443" width="105.28724626579853" height="149.33333333333331"/><rect x="319.8563768671007" y="116.47999999999998" width="105.28724626579853" height="186.66666666666663"/><rect x="426.1422826503255" y="90.47111111111111" width="105.28724626579853" height="186.66666666666663"/><rect x="532.4281884335503" y="125.9377777777778" width="105.28724626579853" height="186.66666666666663"/><rect x="638.7140942167752" y="113.74222222222224" width="105.28724626579853" height="186.66666666666663"/></g><g id="株式" fill="#ff7f0e"><rect x="0.9986595174262902" y="128.1777777777778" width="105.28724626579853" height="25.511111111111177"/><rect x="107.2845653006511" y="113.61777777777777" width="105.28724626579853" height="23.271111111111168"/><rect x="213.5704710838759" y="96.56888888888886" width="105.28724626579853" height="21.155555555555566"/><rect x="319.8563768671007" y="86.86222222222221" width="105.28724626579853" height="29.617777777777746"/><rect x="426.1422826503255" y="48.28444444444443" width="105.28724626579853" height="42.186666666666724"/><rect x="532.4281884335503" y="28.248888888888864" width="105.28724626579853" height="97.68888888888887"/><rect x="638.7140942167752" y="19.78666666666666" width="105.28724626579853" height="93.95555555555558"/></g><g id="xAxis" transform="translate(0,560)" fill="none" font-size="10" font-family="sans-serif" text-anchor="middle"><path class="domain" stroke="currentColor" d="M0.5,0.5H745.5"/><g class="tick" opacity="1" transform="translate(53.642282650325555,0)"><line stroke="currentColor" y2="6"/><text fill="currentColor" y="9" dy="0.71em">202101</text></g><g class="tick" opacity="1" transform="translate(159.92818843355036,0)"><line stroke="currentColor" y2="6"/><text fill="currentColor" y="9" dy="0.71em">202103</text></g><g class="tick" opacity="1" transform="translate(266.21409421677515,0)"><line stroke="currentColor" y2="6"/><text fill="currentColor" y="9" dy="0.71em">202106</text></g><g class="tick" opacity="1" transform="translate(372.5,0)"><line stroke="currentColor" y2="6"/><text fill="currentColor" y="9" dy="0.71em">202109</text></g><g class="tick" opacity="1" transform="translate(478.7859057832248,0)"><line stroke="currentColor" y2="6"/><text fill="currentColor" y="9" dy="0.71em">202112</text></g><g class="tick" opacity="1" transform="translate(585.0718115664496,0)"><line stroke="currentColor" y2="6"/><text fill="currentColor" y="9" dy="0.71em">202203</text></g><g class="tick" opacity="1" transform="translate(691.3577173496744,0)"><line stroke="currentColor" y2="6"/><text fill="currentColor" y="9" dy="0.71em">202206</text></g></g><g id="yAxis" fill="none" font-size="10" font-family="sans-serif" text-anchor="end"><path class="domain" stroke="currentColor" d="M0.5,560.5V0.5"/><g class="tick" opacity="1" transform="translate(0,560.5)"><line stroke="currentColor" x2="-6"/><text fill="currentColor" x="-9" dy="0.32em">0</text></g><g class="tick" opacity="1" transform="translate(0,498.27777777777777)"><line stroke="currentColor" x2="-6"/><text fill="currentColor" x="-9" dy="0.32em">500</text></g><g class="tick" opacity="1" transform="translate(0,436.05555555555554)"><line stroke="currentColor" x2="-6"/><text fill="currentColor" x="-9" dy="0.32em">1,000</text></g><g class="tick" opacity="1" transform="translate(0,373.83333333333337)"><line stroke="currentColor" x2="-6"/><text fill="currentColor" x="-9" dy="0.32em">1,500</text></g><g class="tick" opacity="1" transform="translate(0,311.61111111111114)"><line stroke="currentColor" x2="-6"/><text fill="currentColor" x="-9" dy="0.32em">2,000</text></g><g class="tick" opacity="1" transform="translate(0,249.38888888888889)"><line stroke="currentColor" x2="-6"/><text fill="currentColor" x="-9" dy="0.32em">2,500</text></g><g class="tick" opacity="1" transform="translate(0,187.16666666666669)"><line stroke="currentColor" x2="-6"/><text fill="currentColor" x="-9" dy="0.32em">3,000</text></g><g class="tick" opacity="1" transform="translate(0,124.94444444444444)"><line stroke="currentColor" x2="-6"/><text fill="currentColor" x="-9" dy="0.32em">3,500</text></g><g class="tick" opacity="1" transform="translate(0,62.72222222222225)"><line stroke="currentColor" x2="-6"/><text fill="currentColor" x="-9" dy="0.32em">4,000</text></g><g class="tick" opacity="1" transform="translate(0,0.5)"><line stroke="currentColor" x2="-6"/><text fill="currentColor" x="-9" dy="0.32em">4,500</text></g></g><text y="556" x="745" text-anchor="end" style="font-family: Arial, sans-serif; font-size: 12px; fill: rgb(123, 123, 123); font-weight: bold;">date</text></g><text x="4" y="4" style="font-family: Arial, sans-serif; font-size: 12px; fill: black; font-weight: bold; dominant-baseline: hanging;"/></g></g><g id="legend" transform="translate(805,20)"><g transform="translate(5,0)"><g class="legendColor" transform="translate(0,0)"><g class="legendCells" transform="translate(0,16)"><g class="cell" transform="translate(0, 0)"><rect class="swatch" height="15" width="15" style="fill: rgb(31, 119, 180);"/><text class="label" transform="translate( 20, 12.5)" font-family="&quot;Arial&quot;, sans-serif" font-size="10px"><tspan x="0" dy="0em">学資保険</tspan></text></g><g class="cell" transform="translate(0, 21)"><rect class="swatch" height="15" width="15" style="fill: rgb(255, 127, 14);"/><text class="label" transform="translate( 20, 12.5)" font-family="&quot;Arial&quot;, sans-serif" font-size="10px"><tspan x="0" dy="0em">株式</tspan></text></g><g class="cell" transform="translate(0, 42)"><rect class="swatch" height="15" width="15" style="fill: rgb(44, 160, 44);"/><text class="label" transform="translate( 20, 12.5)" font-family="&quot;Arial&quot;, sans-serif" font-size="10px"><tspan x="0" dy="0em">預金</tspan></text></g></g><text class="legendTitle" font-family="&quot;Arial&quot;, sans-serif" font-size="12px" font-weight="bold"><tspan x="0" dy="0em">Colors</tspan></text></g></g></g></svg>