<?xml version="1.0" encoding="UTF-8" standalone="no"?>
<svg version="1.1" xmlns="http://www.w3.org/2000/svg" style="font-family: sans-serif; " width="800" height="450" viewBox="0 0 800 450"><title>偏差値(Alice)</title><defs><clipPath id="chart-clipPath-exact"><rect height="288" width="637"></rect></clipPath><clipPath id="chart-clipPath-buffer"><rect x="-10" y="-10" height="308" width="657"></rect></clipPath></defs><g class="scaler"><rect width="800" height="450" fill="rgb(255, 255, 255)" fill-opacity="1"></rect><g class="canvas" transform="translate(50,72)"><g class="grid"><g class="axis-grid y" transform="translate(0,0)"><line class="grid" x1="0" x2="637" y1="0" y2="0" style="stroke: #ebe9dd; stroke-opacity: 0.3; stroke-width: 5px; " transform="translate(0,288)"></line><line class="grid" x1="0" x2="637" y1="0" y2="0" style="stroke: #ebe9dd; stroke-opacity: 0.3; stroke-width: 5px; " transform="translate(0,230.4)"></line><line class="grid" x1="0" x2="637" y1="0" y2="0" style="stroke: #ebe9dd; stroke-opacity: 0.3; stroke-width: 5px; " transform="translate(0,172.8)"></line><line class="grid" x1="0" x2="637" y1="0" y2="0" style="stroke: #ebe9dd; stroke-opacity: 0.3; stroke-width: 5px; " transform="translate(0,115.19999999999999)"></line><line class="grid" x1="0" x2="637" y1="0" y2="0" style="stroke: #ebe9dd; stroke-opacity: 0.3; stroke-width: 5px; " transform="translate(0,57.599999999999994)"></line><line class="grid" x1="0" x2="637" y1="0" y2="0" style="stroke: #ebe9dd; stroke-opacity: 0.3; stroke-width: 5px; " transform="translate(0,0)"></line></g><g class="axis-grid x" transform="translate(0,288)"></g><g class="axis-grid y2" transform="translate(636.5,0)"></g><g class="axis-grid x2" transform="translate(0,1)"></g></g><rect class="trigger-layer" height="400" width="750" opacity="0"></rect><g class="chart"><g class="series s0"><path class="line" clip-path="url(#chart-clipPath-exact)" visibility="visible" fill="none" stroke="rgb(65, 105, 225)" stroke-opacity="1" stroke-width="5" d="M0,141.12000000000015L159.25,247.68000000000004L318.5,158.4L477.75,95.0399999999999L637,5.760000000000048"></path><path class="point" clip-path="url(#chart-clipPath-buffer)" visibility="hidden" transform="translate(0,141.12000000000015)"></path><path class="point" clip-path="url(#chart-clipPath-buffer)" visibility="hidden" transform="translate(159.25,247.68000000000004)"></path><path class="point" clip-path="url(#chart-clipPath-buffer)" visibility="hidden" transform="translate(318.5,158.4)"></path><path class="point" clip-path="url(#chart-clipPath-buffer)" visibility="hidden" transform="translate(477.75,95.0399999999999)"></path><path class="point" clip-path="url(#chart-clipPath-buffer)" visibility="hidden" transform="translate(637,5.760000000000048)"></path><text class="data-label" font-size="14" fill="rgb(65, 105, 225)" fill-opacity="1" visibility="visible" text-anchor="middle" data-text-vanchor="bottom" transform="translate(0,117.12000000000015)"><tspan x="0" y="0" dy="0.91em">65.1</tspan></text><text class="data-label" font-size="14" fill="rgb(65, 105, 225)" fill-opacity="1" visibility="visible" text-anchor="middle" data-text-vanchor="bottom" transform="translate(159.25,223.68000000000004)"><tspan x="0" y="0" dy="0.91em">61.4</tspan></text><text class="data-label" font-size="14" fill="rgb(65, 105, 225)" fill-opacity="1" visibility="visible" text-anchor="middle" data-text-vanchor="bottom" transform="translate(318.5,134.4)"><tspan x="0" y="0" dy="0.91em">64.5</tspan></text><text class="data-label" font-size="14" fill="rgb(65, 105, 225)" fill-opacity="1" visibility="visible" text-anchor="middle" data-text-vanchor="bottom" transform="translate(477.75,71.0399999999999)"><tspan x="0" y="0" dy="0.91em">66.7</tspan></text><text class="data-label" font-size="14" fill="rgb(65, 105, 225)" fill-opacity="1" visibility="visible" text-anchor="middle" data-text-vanchor="bottom" transform="translate(637,-18.239999999999952)"><tspan x="0" y="0" dy="0.91em">69.8</tspan></text></g><g class="series s1"><path class="line" clip-path="url(#chart-clipPath-exact)" visibility="visible" fill="none" stroke="rgb(233, 76, 59)" stroke-opacity="1" stroke-width="5" d="M0,227.51999999999995L159.25,181.4399999999999L318.5,118.07999999999981L477.75,164.16000000000008L637,167.0399999999999"></path><path class="point" clip-path="url(#chart-clipPath-buffer)" visibility="hidden" transform="translate(0,227.51999999999995)"></path><path class="point" clip-path="url(#chart-clipPath-buffer)" visibility="hidden" transform="translate(159.25,181.4399999999999)"></path><path class="point" clip-path="url(#chart-clipPath-buffer)" visibility="hidden" transform="translate(318.5,118.07999999999981)"></path><path class="point" clip-path="url(#chart-clipPath-buffer)" visibility="hidden" transform="translate(477.75,164.16000000000008)"></path><path class="point" clip-path="url(#chart-clipPath-buffer)" visibility="hidden" transform="translate(637,167.0399999999999)"></path><text class="data-label" font-size="14" fill="rgb(233, 76, 59)" fill-opacity="1" visibility="visible" text-anchor="middle" data-text-vanchor="bottom" transform="translate(0,203.51999999999995)"><tspan x="0" y="0" dy="0.91em">62.1</tspan></text><text class="data-label" font-size="14" fill="rgb(233, 76, 59)" fill-opacity="1" visibility="visible" text-anchor="middle" data-text-vanchor="bottom" transform="translate(159.25,157.4399999999999)"><tspan x="0" y="0" dy="0.91em">63.7</tspan></text><text class="data-label" font-size="14" fill="rgb(233, 76, 59)" fill-opacity="1" visibility="visible" text-anchor="middle" data-text-vanchor="bottom" transform="translate(318.5,94.07999999999981)"><tspan x="0" y="0" dy="0.91em">65.9</tspan></text><text class="data-label" font-size="14" fill="rgb(233, 76, 59)" fill-opacity="1" visibility="visible" text-anchor="middle" data-text-vanchor="bottom" transform="translate(477.75,140.16000000000008)"><tspan x="0" y="0" dy="0.91em">64.3</tspan></text><text class="data-label" font-size="14" fill="rgb(233, 76, 59)" fill-opacity="1" visibility="visible" text-anchor="middle" data-text-vanchor="bottom" transform="translate(637,143.0399999999999)"><tspan x="0" y="0" dy="0.91em">64.2</tspan></text></g><g class="series s2"><path class="line" clip-path="url(#chart-clipPath-exact)" visibility="visible" fill="none" stroke="rgb(188, 188, 188)" stroke-opacity="1" stroke-width="5" d="M0,40.320000000000164L159.25,172.8L318.5,92.16000000000008L477.75,83.52000000000015L637,40.320000000000164"></path><path class="point" clip-path="url(#chart-clipPath-buffer)" visibility="hidden" transform="translate(0,40.320000000000164)"></path><path class="point" clip-path="url(#chart-clipPath-buffer)" visibility="hidden" transform="translate(159.25,172.8)"></path><path class="point" clip-path="url(#chart-clipPath-buffer)" visibility="hidden" transform="translate(318.5,92.16000000000008)"></path><path class="point" clip-path="url(#chart-clipPath-buffer)" visibility="hidden" transform="translate(477.75,83.52000000000015)"></path><path class="point" clip-path="url(#chart-clipPath-buffer)" visibility="hidden" transform="translate(637,40.320000000000164)"></path><text class="data-label" font-size="14" fill="rgb(188, 188, 188)" fill-opacity="1" visibility="visible" text-anchor="middle" data-text-vanchor="bottom" transform="translate(0,16.320000000000164)"><tspan x="0" y="0" dy="0.91em">68.6</tspan></text><text class="data-label" font-size="14" fill="rgb(188, 188, 188)" fill-opacity="1" visibility="visible" text-anchor="middle" data-text-vanchor="bottom" transform="translate(159.25,148.8)"><tspan x="0" y="0" dy="0.91em">64</tspan></text><text class="data-label" font-size="14" fill="rgb(188, 188, 188)" fill-opacity="1" visibility="visible" text-anchor="middle" data-text-vanchor="bottom" transform="translate(318.5,68.16000000000008)"><tspan x="0" y="0" dy="0.91em">66.8</tspan></text><text class="data-label" font-size="14" fill="rgb(188, 188, 188)" fill-opacity="1" visibility="visible" text-anchor="middle" data-text-vanchor="bottom" transform="translate(477.75,59.52000000000015)"><tspan x="0" y="0" dy="0.91em">67.1</tspan></text><text class="data-label" font-size="14" fill="rgb(188, 188, 188)" fill-opacity="1" visibility="visible" text-anchor="middle" data-text-vanchor="bottom" transform="translate(637,16.320000000000164)"><tspan x="0" y="0" dy="0.91em">68.6</tspan></text></g></g><g class="axes"><g class="axis-labels"></g><g class="axis left" transform="translate(0,0)"><g class="tick major" style="opacity: 1; display: block; " transform="translate(0,288)"><line x2="-6" y2="0"></line><text x="-9" y="0" dy="7" style="fill: #000000; fill-opacity: 1; font-family: sans-serif; font-size: 14px; text-anchor: end; " transform="rotate(0, -9, 0)translate(0,0)" data-org-x="-9" data-org-y="0">60</text></g><g class="tick major" style="opacity: 1; display: block; " transform="translate(0,230.4)"><line x2="-6" y2="0"></line><text x="-9" y="0" dy="7" style="fill: #000000; fill-opacity: 1; font-family: sans-serif; font-size: 14px; text-anchor: end; " transform="rotate(0, -9, 0)translate(0,0)" data-org-x="-9" data-org-y="0">62</text></g><g class="tick major" style="opacity: 1; display: block; " transform="translate(0,172.8)"><line x2="-6" y2="0"></line><text x="-9" y="0" dy="7" style="fill: #000000; fill-opacity: 1; font-family: sans-serif; font-size: 14px; text-anchor: end; " transform="rotate(0, -9, 0)translate(0,0)" data-org-x="-9" data-org-y="0">64</text></g><g class="tick major" style="opacity: 1; display: block; " transform="translate(0,115.19999999999999)"><line x2="-6" y2="0"></line><text x="-9" y="0" dy="7" style="fill: #000000; fill-opacity: 1; font-family: sans-serif; font-size: 14px; text-anchor: end; " transform="rotate(0, -9, 0)translate(0,0)" data-org-x="-9" data-org-y="0">66</text></g><g class="tick major" style="opacity: 1; display: block; " transform="translate(0,57.599999999999994)"><line x2="-6" y2="0"></line><text x="-9" y="0" dy="7" style="fill: #000000; fill-opacity: 1; font-family: sans-serif; font-size: 14px; text-anchor: end; " transform="rotate(0, -9, 0)translate(0,0)" data-org-x="-9" data-org-y="0">68</text></g><g class="tick major" style="opacity: 1; display: block; " transform="translate(0,0)"><line x2="-6" y2="0"></line><text x="-9" y="0" dy="7" style="fill: #000000; fill-opacity: 1; font-family: sans-serif; font-size: 14px; text-anchor: end; " transform="rotate(0, -9, 0)translate(0,0)" data-org-x="-9" data-org-y="0">70</text></g><path class="domain" d="M0,0H0V288H0" stroke-width="0" fill="none" stroke="rgb(255, 255, 255)" stroke-opacity="1"></path></g><g class="axis bottom" transform="translate(0,288)"><g class="tick major" style="opacity: 1; display: block; " transform="translate(0,0)"><line y2="6" x2="0"></line><text y="9" x="0" dy="7" style="fill: #000000; fill-opacity: 1; font-family: sans-serif; font-size: 14px; text-anchor: start; " transform="rotate(20, 0, 9)translate(0,0)" data-org-x="0" data-org-y="9">2020年06月(小1)</text></g><g class="tick major" style="opacity: 1; display: block; " transform="translate(159.25,0)"><line y2="6" x2="0"></line><text y="9" x="0" dy="7" style="fill: #000000; fill-opacity: 1; font-family: sans-serif; font-size: 14px; text-anchor: start; " transform="rotate(20, 0, 9)translate(0,0)" data-org-x="0" data-org-y="9">2020年11月(小1)</text></g><g class="tick major" style="opacity: 1; display: block; " transform="translate(318.5,0)"><line y2="6" x2="0"></line><text y="9" x="0" dy="7" style="fill: #000000; fill-opacity: 1; font-family: sans-serif; font-size: 14px; text-anchor: start; " transform="rotate(20, 0, 9)translate(0,0)" data-org-x="0" data-org-y="9">2021年06月(小2)</text></g><g class="tick major" style="opacity: 1; display: block; " transform="translate(477.75,0)"><line y2="6" x2="0"></line><text y="9" x="0" dy="7" style="fill: #000000; fill-opacity: 1; font-family: sans-serif; font-size: 14px; text-anchor: start; " transform="rotate(20, 0, 9)translate(0,0)" data-org-x="0" data-org-y="9">2021年11月(小2)</text></g><g class="tick major" style="opacity: 1; display: block; " transform="translate(637,0)"><line y2="6" x2="0"></line><text y="9" x="0" dy="7" style="fill: #000000; fill-opacity: 1; font-family: sans-serif; font-size: 14px; text-anchor: start; " transform="rotate(20, 0, 9)translate(0,0)" data-org-x="0" data-org-y="9">2022年06月(小3)</text></g><path class="domain" d="M0,0V0H637V0" stroke-width="0" fill="none" stroke="rgb(235, 233, 221)" stroke-opacity="1"></path><path class="filler" d="M0,0V0H0V0" stroke-width="0" fill="none" stroke="rgb(235, 233, 221)" stroke-opacity="1"></path></g></g></g><g class="label" transform="translate(336,25)"><text style="text-anchor: start; font-family: sans-serif; font-size: 22px; " fill="rgb(0, 0, 0)" dy="22" transform="rotate(0)">偏差値(Alice)</text></g><g class="legend" transform="translate(711.1013450622559,25)"><g class="row" transform="translate(0,0)"><text class="key" style="font-size: 14px; fill: #000000; fill-opacity: 1; " dx="28" dy="14">算数</text><path class="shape" d="M0,7.898654169668588A7.898654169668588,7.898654169668588 0 1,1 0,-7.898654169668588A7.898654169668588,7.898654169668588 0 1,1 0,7.898654169668588Z" style="fill: #4169e1; fill-opacity: 1; " transform="translate(14,9.24)"></path></g><g class="row" transform="translate(0,35)"><text class="key" style="font-size: 14px; fill: #000000; fill-opacity: 1; " dx="28" dy="14">国語</text><path class="shape" d="M0,7.898654169668588A7.898654169668588,7.898654169668588 0 1,1 0,-7.898654169668588A7.898654169668588,7.898654169668588 0 1,1 0,7.898654169668588Z" style="fill: #e94c3b; fill-opacity: 1; " transform="translate(14,9.24)"></path></g><g class="row" transform="translate(0,70)"><text class="key" style="font-size: 14px; fill: #000000; fill-opacity: 1; " dx="28" dy="14">全教科</text><path class="shape" d="M0,7.898654169668588A7.898654169668588,7.898654169668588 0 1,1 0,-7.898654169668588A7.898654169668588,7.898654169668588 0 1,1 0,7.898654169668588Z" style="fill: #bcbcbc; fill-opacity: 1; " transform="translate(14,9.24)"></path></g></g></g></svg>